<svg
	xmlns="http://www.w3.org/2000/svg"
	id="instagram"
	viewBox="120 0 40 40"
	fill="none"
>
	<path
		fill-rule="evenodd"
		clip-rule="evenodd"
		d="M140 0C128.954 0 120 8.95431 120 20C120 31.0457 128.954 40 140 40C151.046 40 160 31.0457 160 20C160 8.95431 151.046 0 140 0ZM135.603 9.39778C136.741 9.346 137.104 9.33333 140.001 9.33333H139.998C142.895 9.33333 143.258 9.346 144.395 9.39778C145.531 9.44978 146.307 9.62956 146.987 9.89334C147.689 10.1656 148.282 10.53 148.876 11.1234C149.469 11.7162 149.833 12.3114 150.107 13.0129C150.369 13.6912 150.549 14.4663 150.602 15.6018C150.653 16.7396 150.667 17.1032 150.667 20.0001C150.667 22.897 150.653 23.2597 150.602 24.3975C150.549 25.5326 150.369 26.308 150.107 26.9864C149.833 27.6877 149.469 28.2829 148.876 28.8758C148.283 29.4691 147.689 29.8344 146.987 30.1069C146.309 30.3707 145.533 30.5504 144.397 30.6024C143.259 30.6542 142.897 30.6669 140 30.6669C137.103 30.6669 136.74 30.6542 135.602 30.6024C134.466 30.5504 133.691 30.3707 133.012 30.1069C132.311 29.8344 131.716 29.4691 131.124 28.8758C130.53 28.2829 130.166 27.6877 129.893 26.9862C129.63 26.308 129.45 25.5328 129.398 24.3973C129.346 23.2595 129.333 22.897 129.333 20.0001C129.333 17.1032 129.347 16.7394 129.398 15.6016C129.449 14.4665 129.629 13.6912 129.893 13.0127C130.166 12.3114 130.531 11.7162 131.124 11.1234C131.717 10.5302 132.312 10.1658 133.014 9.89334C133.692 9.62956 134.467 9.44978 135.603 9.39778Z"
		fill="#5D71DD"
	/>
	<path
		fill-rule="evenodd"
		clip-rule="evenodd"
		d="M139.044 11.2546C139.23 11.2543 139.43 11.2544 139.645 11.2545L140.001 11.2546C142.849 11.2546 143.186 11.2648 144.311 11.316C145.351 11.3635 145.916 11.5373 146.292 11.6833C146.789 11.8766 147.144 12.1077 147.517 12.4811C147.891 12.8544 148.122 13.21 148.316 13.7078C148.462 14.0833 148.636 14.6478 148.683 15.6878C148.734 16.8122 148.745 17.15 148.745 19.9967C148.745 22.8434 148.734 23.1812 148.683 24.3056C148.635 25.3457 148.462 25.9101 148.316 26.2857C148.122 26.7834 147.891 27.1379 147.517 27.511C147.144 27.8843 146.79 28.1155 146.292 28.3088C145.916 28.4555 145.351 28.6288 144.311 28.6764C143.187 28.7275 142.849 28.7386 140.001 28.7386C137.153 28.7386 136.815 28.7275 135.691 28.6764C134.651 28.6284 134.086 28.4546 133.71 28.3086C133.212 28.1152 132.857 27.8841 132.483 27.5108C132.11 27.1375 131.879 26.7828 131.685 26.2848C131.539 25.9092 131.365 25.3448 131.318 24.3048C131.267 23.1803 131.256 22.8425 131.256 19.994C131.256 17.1456 131.267 16.8096 131.318 15.6851C131.365 14.6451 131.539 14.0806 131.685 13.7046C131.878 13.2069 132.11 12.8513 132.483 12.478C132.857 12.1046 133.212 11.8735 133.71 11.6797C134.086 11.5331 134.651 11.3597 135.691 11.312C136.675 11.2675 137.056 11.2542 139.044 11.252V11.2546ZM145.695 13.0265C144.988 13.0265 144.415 13.5992 144.415 14.3061C144.415 15.0127 144.988 15.5861 145.695 15.5861C146.401 15.5861 146.975 15.0127 146.975 14.3061C146.975 13.5994 146.401 13.026 145.695 13.026V13.0265ZM134.523 20C134.523 16.9749 136.976 14.5223 140.001 14.5221C143.026 14.5221 145.478 16.9748 145.478 20C145.478 23.0251 143.026 25.4767 140.001 25.4767C136.976 25.4767 134.523 23.0251 134.523 20Z"
		fill="#5D71DD"
	/>
	<path
		fill-rule="evenodd"
		clip-rule="evenodd"
		d="M140.001 16.4434C141.964 16.4434 143.556 18.0352 143.556 19.999C143.556 21.9625 141.964 23.5545 140.001 23.5545C138.037 23.5545 136.445 21.9625 136.445 19.999C136.445 18.0352 138.037 16.4434 140.001 16.4434V16.4434Z"
		fill="#5D71DD"
	/>
</svg>
