<svg
	xmlns="http://www.w3.org/2000/svg"
	id="twitter"
	viewBox="180 0 40 40"
	fill="none"
>
	<path
		fill-rule="evenodd"
		clip-rule="evenodd"
		d="M200 0C188.954 0 180 8.95431 180 20C180 31.0457 188.954 40 200 40C211.046 40 220 31.0457 220 20C220 8.95431 211.046 0 200 0ZM199.443 16.9483L199.401 16.2563C199.275 14.4626 200.38 12.8243 202.129 12.1887C202.772 11.9627 203.864 11.9345 204.577 12.1322C204.857 12.217 205.389 12.4994 205.766 12.7537L206.452 13.2197L207.207 12.9796C207.627 12.8525 208.186 12.6407 208.438 12.4994C208.676 12.3723 208.886 12.3017 208.886 12.3441C208.886 12.5842 208.368 13.4033 207.935 13.8553C207.347 14.4908 207.515 14.5473 208.704 14.1236C209.418 13.8835 209.432 13.8835 209.292 14.1519C209.208 14.2931 208.774 14.7874 208.312 15.2394C207.529 16.0162 207.487 16.1009 207.487 16.7506C207.487 17.7533 207.011 19.8436 206.536 20.9876C205.654 23.1343 203.766 25.3517 201.877 26.4674C199.219 28.0351 195.68 28.4306 192.7 27.5126C191.707 27.2019 190 26.411 190 26.2697C190 26.2274 190.518 26.1709 191.147 26.1567C192.462 26.1285 193.777 25.7613 194.896 25.1116L195.652 24.6597L194.784 24.3631C193.553 23.9394 192.448 22.9649 192.168 22.0468C192.084 21.7502 192.112 21.7361 192.896 21.7361L193.707 21.722L193.022 21.3972C192.21 20.9876 191.469 20.2955 191.105 19.5894C190.839 19.0809 190.504 17.7957 190.602 17.6968C190.63 17.6545 190.923 17.7392 191.259 17.8522C192.224 18.2053 192.35 18.1205 191.791 17.5274C190.741 16.454 190.42 14.858 190.923 13.3468L191.161 12.6689L192.084 13.5869C193.973 15.4371 196.197 16.5387 198.743 16.8636L199.443 16.9483Z"
		fill="#5D71DD"
	/>
</svg>
