<svg
	xmlns="http://www.w3.org/2000/svg"
	id="vk"
	viewBox="60 0 40 40"
	fill="none"
>
	<path
		fill-rule="evenodd"
		clip-rule="evenodd"
		d="M80 0C68.9543 0 60 8.95431 60 20C60 31.0457 68.9543 40 80 40C91.0457 40 100 31.0457 100 20C100 8.95431 91.0457 0 80 0ZM81.6284 26.3135C81.4312 26.5214 81.0462 26.5634 81.0462 26.5634H79.7712C79.7712 26.5634 76.9581 26.7293 74.48 24.1975C71.7776 21.4352 69.3913 15.9546 69.3913 15.9546C69.3913 15.9546 69.2536 15.5951 69.4028 15.422C69.5707 15.2264 70.0288 15.2141 70.0288 15.2141L73.0766 15.1947C73.0766 15.1947 73.3636 15.2407 73.5691 15.3893C73.7392 15.5122 73.8341 15.7406 73.8341 15.7406C73.8341 15.7406 74.3266 16.9635 74.9788 18.0696C76.2528 20.2297 76.8454 20.7018 77.2774 20.4704C77.9076 20.1334 77.7188 17.4172 77.7188 17.4172C77.7188 17.4172 77.7302 16.4319 77.4016 15.9925C77.147 15.6525 76.667 15.5531 76.4552 15.5255C76.283 15.5029 76.5648 15.1117 76.93 14.9365C77.4788 14.6733 78.4471 14.658 79.5917 14.6692C80.4838 14.6784 80.7405 14.7327 81.089 14.8157C81.8978 15.0073 81.8726 15.6213 81.8181 16.9464C81.8018 17.3427 81.7829 17.8026 81.7829 18.3339C81.7829 18.4532 81.7793 18.5805 81.7757 18.7114C81.7568 19.3903 81.7351 20.1677 82.1908 20.4571C82.4246 20.6045 82.9953 20.4786 84.4237 18.0983C85.1009 16.9696 85.608 15.6433 85.608 15.6433C85.608 15.6433 85.7197 15.4067 85.8918 15.3053C86.0682 15.2018 86.3061 15.2336 86.3061 15.2336L89.5135 15.2141C89.5135 15.2141 90.4776 15.1004 90.6331 15.5285C90.7969 15.9761 90.2731 17.0229 88.9626 18.7374C87.7195 20.3642 87.1145 20.9632 87.17 21.4929C87.2106 21.88 87.6038 22.2301 88.3585 22.9172C89.9338 24.3529 90.3561 25.1082 90.4575 25.2897C90.4659 25.3048 90.4721 25.3159 90.4766 25.3231C91.183 26.4733 89.693 26.5634 89.693 26.5634L86.8434 26.6023C86.8434 26.6023 86.232 26.7211 85.4265 26.1783C85.0045 25.8942 84.5922 25.4302 84.1995 24.9882C83.5997 24.3132 83.0456 23.6896 82.5727 23.8369C81.7787 24.0848 81.8027 25.7635 81.8027 25.7635C81.8027 25.7635 81.809 26.123 81.6284 26.3135Z"
		fill="#5D71DD"
	/>
</svg>
